<svg width="434" height="436" viewBox="0 0 434 436" fill="none" xmlns="http://www.w3.org/2000/svg">
<mask id="mask0_189_3145" style="mask-type:alpha" maskUnits="userSpaceOnUse" x="0" y="0" width="434" height="436">
<rect width="434" height="436" transform="matrix(-1 0 0 1 434 0)" fill="#D9D9D9"/>
</mask>
<g mask="url(#mask0_189_3145)">
<path d="M430.195 34.5514C448.181 34.5514 456.869 19.0757 456.869 7.91446C456.869 -4.46612 447.547 -20.5749 429.584 -20.5749C411.598 -20.5749 404.154 -4.46615 404.154 7.30477C404.154 19.0757 412.819 34.5514 430.195 34.5514ZM367.313 16.0978L184.631 50.7775C184.584 50.4726 184.49 50.1678 184.419 49.8396C184.302 48.6437 184.255 47.4479 184.208 46.252L366.914 11.5723C366.843 10.3062 366.561 8.99308 366.561 7.75033C366.561 7.42206 366.655 7.04686 366.655 6.71858H78.7081V1.51311H367.054C367.313 -1.3241 367.688 -4.13787 368.275 -7.04543L3.73147e-06 -80.7896L1.29142 -87.1908L369.731 -13.3998C370.342 -15.5102 371.187 -17.5502 371.985 -19.637L276.864 -58.209C277.028 -59.1001 277.24 -59.9911 277.404 -60.8821C277.498 -61.5152 277.545 -62.1483 277.639 -62.758L373.653 -23.8342C374.451 -25.6163 375.367 -27.3045 376.329 -29.0397L138.749 -190.503L141.684 -194.841L379.053 -33.4948C380.532 -35.7224 382.176 -37.8327 383.937 -39.8727L118.908 -304.531L123.533 -309.127L388.352 -44.6795C390.207 -46.4147 392.343 -47.845 394.433 -49.3457L294.17 -199.695C295.25 -200.562 296.377 -201.383 297.41 -202.321C297.504 -202.391 297.574 -202.508 297.668 -202.602L398.167 -51.9015C399.622 -52.7457 401.125 -53.496 402.699 -54.2229L291.68 -316.607L296.494 -318.647L407.606 -56.0753C410.377 -57.0601 413.218 -57.9042 416.294 -58.4904L346.415 -425.781L352.825 -427L422.822 -59.2408C424.677 -59.3815 426.297 -59.8504 428.246 -59.8504C428.692 -59.8504 429.068 -59.7097 429.537 -59.7097V-213.881C431.04 -213.998 432.543 -214.139 434.069 -214.279V-59.1939C436.276 -59.0063 438.483 -58.8422 440.573 -58.467L514.28 -425.57L520.69 -424.28L446.937 -56.9194C449.003 -56.2863 450.975 -55.5594 452.901 -54.7622L475.396 -110.076C476.053 -109.818 476.664 -109.513 477.345 -109.255C478.096 -108.974 478.871 -108.74 479.646 -108.505L457.151 -53.1677C459.804 -51.8312 462.105 -50.096 464.477 -48.4312L625.556 -284.788L629.877 -281.833L468.797 -45.4768C470.23 -44.2809 471.38 -42.874 472.695 -41.561L738.335 -306.829L742.961 -302.21L477.321 -36.9417C478.659 -35.3237 479.716 -33.5417 480.914 -31.83L583.713 -100.205C583.995 -99.8294 584.277 -99.4542 584.606 -99.1259L584.535 -99.1728C584.606 -99.1259 584.629 -99.0556 584.723 -99.0087C584.84 -98.8914 584.958 -98.7508 585.075 -98.6335C585.733 -98.0942 586.296 -97.4846 586.86 -96.8515L483.45 -28.0783C484.952 -25.6163 486.197 -23.0839 487.394 -20.4812L751.837 -132.047L753.856 -127.24L489.555 -15.7212C490.306 -13.7281 490.846 -11.7585 491.41 -9.74196L859.779 -79.664L861 -73.2393L493.077 -3.43443C493.429 -1.65237 493.546 0.0593537 493.758 1.79451H653.827C653.827 3.31863 653.874 4.81927 653.921 6.31995H494.157C494.204 7.28132 494.439 8.28958 494.439 9.25095C494.439 11.713 494.063 14.3627 493.711 16.9888L773.393 72.9828L772.383 78.0945L492.795 22.124C492.443 23.695 491.973 25.2895 491.504 26.8839L836.228 166.634L833.786 172.684L489.39 33.0508C488.521 35.2314 487.535 37.3652 486.432 39.4755L538.137 74.6007C537.127 75.7262 536.141 76.8986 535.155 78.071L484.177 43.4148C482.346 46.4396 480.35 49.394 477.979 52.1375L678.201 252.102L674.514 255.784L474.222 55.7954C472.695 57.3195 471.31 58.9609 469.572 60.3443L673.927 366.74L668.48 370.374L464.078 63.8849C462.411 64.9401 460.837 66.136 459.029 67.0739L528.721 231.796H523.813L454.826 68.7621C451.234 70.2394 447.5 71.529 443.414 72.3497L496.106 349.177L490.94 350.139L438.202 72.9124C435.948 73.1938 433.811 73.5924 431.416 73.6628V441H424.888V73.2876C422.493 73.1001 420.098 72.9124 417.844 72.4904L391.709 202.721C390.16 202.744 388.61 202.768 387.084 202.791L413.406 71.6228C410.471 70.8256 407.747 69.7704 405.07 68.598L298.654 330.349L293.794 328.379L400.327 66.3705C397.556 64.8463 394.903 63.1581 392.484 61.2353L184.678 366.107L179.277 362.426L387.6 56.7802C386.051 55.2561 384.383 53.8023 382.998 52.1375L323.544 111.508C322.323 110.593 321.079 109.702 319.834 108.811L380.298 48.4326C378.865 46.4396 377.433 44.4465 376.212 42.3362L138.232 200.587L135.321 196.249L373.864 37.6231C372.713 35.208 371.492 32.8163 370.623 30.3308L26.9561 175.334L24.3967 169.307L368.909 23.9764C368.252 21.3267 367.665 18.724 367.313 16.0978ZM682.686 -166.023L685.198 -162.248L608.368 -111.178C607.476 -112.374 606.56 -113.593 605.551 -114.742L682.686 -166.023ZM734.203 1.79451V6.31995H679.727C679.657 4.81927 679.61 3.31863 679.586 1.79451H734.203ZM216.823 218.079L213.63 214.867L301.19 127.429C302.529 128.226 303.867 129 305.135 129.868L216.823 218.079ZM261.46 -248.725L265.241 -251.233L283.039 -224.55C282.03 -223.377 280.95 -222.252 279.823 -221.197L261.46 -248.725ZM132.667 60.6257L131.822 56.194L158.708 51.0823C158.872 52.583 159.037 54.0836 159.295 55.5843L132.667 60.6257ZM252.467 -68.0807L148.987 -110.053L150.701 -114.226L252.796 -72.8406C252.726 -71.2462 252.632 -69.6752 252.467 -68.0807ZM539.499 257.284L549.83 281.717L545.674 283.476L534.685 257.519H537.151C537.972 257.519 538.747 257.425 539.499 257.284ZM485.164 -133.759C485.164 -133.759 485.093 -133.806 485.046 -133.829L543.796 -278.339L547.999 -276.628L489.414 -132.516C487.981 -132.915 486.573 -133.29 485.164 -133.759ZM559.716 89.2792L682.239 172.543L679.68 176.295L556.522 92.5854C557.555 91.4599 558.612 90.3343 559.716 89.2792ZM386.52 228.49L372.103 300.359L367.665 299.468L381.918 228.443C383.468 228.49 384.994 228.514 386.52 228.49ZM429.537 -300.193H434.069V-239.908C432.543 -239.744 431.04 -239.65 429.537 -239.533V-300.193Z" fill="#948A79" fill-opacity="0.04"/>
</g>
</svg>
