<svg width="434" height="436" viewBox="0 0 434 436" fill="none" xmlns="http://www.w3.org/2000/svg">
<mask id="mask0_189_3145" style="mask-type:alpha" maskUnits="userSpaceOnUse" x="0" y="0" width="434" height="436">
<rect width="434" height="436" fill="#D9D9D9"/>
</mask>
<g mask="url(#mask0_189_3145)">
<path d="M3.80529 34.5514C-14.1811 34.5514 -22.8691 19.0757 -22.8691 7.91446C-22.8691 -4.46612 -13.5472 -20.5749 4.41575 -20.5749C22.4022 -20.5749 29.8457 -4.46615 29.8457 7.30477C29.8457 19.0757 21.1812 34.5514 3.80529 34.5514ZM66.6873 16.0978L249.369 50.7775C249.416 50.4726 249.51 50.1678 249.581 49.8396C249.698 48.6437 249.745 47.4479 249.792 46.252L67.0865 11.5723C67.1569 10.3062 67.4387 8.99308 67.4387 7.75033C67.4387 7.42206 67.3447 7.04686 67.3447 6.71858H355.292V1.51311H66.9456C66.6873 -1.3241 66.3116 -4.13787 65.7246 -7.04543L434 -80.7896L432.709 -87.1908L64.2688 -13.3998C63.6583 -15.5102 62.813 -17.5502 62.0146 -19.637L157.136 -58.209C156.972 -59.1001 156.76 -59.9911 156.596 -60.8821C156.502 -61.5152 156.455 -62.1483 156.361 -62.758L60.3475 -23.8342C59.5491 -25.6163 58.6333 -27.3045 57.6706 -29.0397L295.251 -190.503L292.316 -194.841L54.9468 -33.4948C53.4675 -35.7224 51.8239 -37.8327 50.0628 -39.8727L315.092 -304.531L310.467 -309.127L45.6484 -44.6795C43.7934 -46.4147 41.6566 -47.845 39.5668 -49.3457L139.83 -199.695C138.75 -200.562 137.623 -201.383 136.59 -202.321C136.496 -202.391 136.426 -202.508 136.332 -202.602L35.8333 -51.9015C34.3775 -52.7457 32.8747 -53.496 31.3015 -54.2229L142.32 -316.607L137.506 -318.647L26.394 -56.0753C23.6232 -57.0601 20.782 -57.9042 17.706 -58.4904L87.5854 -425.781L81.1751 -427L11.1783 -59.2408C9.32329 -59.3815 7.70312 -59.8504 5.7542 -59.8504C5.30806 -59.8504 4.93236 -59.7097 4.46274 -59.7097V-213.881C2.95996 -213.998 1.45714 -214.139 -0.0691201 -214.279V-59.1939C-2.27633 -59.0063 -4.48348 -58.8422 -6.57328 -58.467L-80.2801 -425.57L-86.6904 -424.28L-12.9366 -56.9194C-15.0029 -56.2863 -16.9754 -55.5594 -18.9008 -54.7622L-41.3956 -110.076C-42.053 -109.818 -42.6636 -109.513 -43.3445 -109.255C-44.0959 -108.974 -44.8708 -108.74 -45.6456 -108.505L-23.1509 -53.1677C-25.8042 -51.8312 -28.1053 -50.096 -30.4769 -48.4312L-191.556 -284.788L-195.877 -281.833L-34.7974 -45.4768C-36.2298 -44.2809 -37.3803 -42.874 -38.6953 -41.561L-304.335 -306.829L-308.961 -302.21L-43.321 -36.9417C-44.6594 -35.3237 -45.7161 -33.5417 -46.9136 -31.83L-149.713 -100.205C-149.995 -99.8294 -150.277 -99.4542 -150.606 -99.1259L-150.535 -99.1728C-150.606 -99.1259 -150.629 -99.0556 -150.723 -99.0087C-150.84 -98.8914 -150.958 -98.7508 -151.075 -98.6335C-151.733 -98.0942 -152.296 -97.4846 -152.86 -96.8515L-49.4495 -28.0783C-50.9523 -25.6163 -52.1968 -23.0839 -53.3944 -20.4812L-317.837 -132.047L-319.856 -127.24L-55.5546 -15.7212C-56.306 -13.7281 -56.8461 -11.7585 -57.4096 -9.74196L-425.779 -79.664L-427 -73.2393L-59.0768 -3.43443C-59.429 -1.65237 -59.5464 0.0593537 -59.7577 1.79451H-219.827C-219.827 3.31863 -219.874 4.81927 -219.921 6.31995H-60.1569C-60.2038 7.28132 -60.4387 8.28958 -60.4387 9.25095C-60.4387 11.713 -60.063 14.3627 -59.7108 16.9888L-339.393 72.9828L-338.383 78.0945L-58.795 22.124C-58.4428 23.695 -57.9732 25.2895 -57.5035 26.8839L-402.228 166.634L-399.786 172.684L-55.3902 33.0508C-54.5214 35.2314 -53.5353 37.3652 -52.4317 39.4755L-104.137 74.6007C-103.127 75.7262 -102.141 76.8986 -101.155 78.071L-50.1775 43.4148C-48.3459 46.4396 -46.3501 49.394 -43.9785 52.1375L-244.201 252.102L-240.514 255.784L-40.2215 55.7954C-38.6953 57.3195 -37.3099 58.9609 -35.5723 60.3443L-239.927 366.74L-234.48 370.374L-30.0778 63.8849C-28.4106 64.9401 -26.8374 66.136 -25.0294 67.0739L-94.7209 231.796H-89.8133L-20.8263 68.7621C-17.2337 70.2394 -13.5002 71.529 -9.4145 72.3497L-62.1058 349.177L-56.94 350.139L-4.20172 72.9124C-1.94754 73.1938 0.18922 73.5924 2.58428 73.6628V441H9.11197V73.2876C11.507 73.1001 13.9021 72.9124 16.1563 72.4904L42.2906 202.721C43.8403 202.744 45.3901 202.768 46.9164 202.791L20.5942 71.6228C23.5293 70.8256 26.2531 69.7704 28.9299 68.598L135.346 330.349L140.206 328.379L33.673 66.3705C36.4438 64.8463 39.0971 63.1581 41.5157 61.2353L249.322 366.107L254.723 362.426L46.3997 56.7802C47.9495 55.2561 49.6167 53.8023 51.002 52.1375L110.456 111.508C111.677 110.593 112.921 109.702 114.166 108.811L53.7023 48.4326C55.1347 46.4396 56.567 44.4465 57.788 42.3362L295.768 200.587L298.679 196.249L60.1361 37.6231C61.2867 35.208 62.5077 32.8163 63.3765 30.3308L407.044 175.334L409.603 169.307L65.0906 23.9764C65.7481 21.3267 66.3351 18.724 66.6873 16.0978ZM-248.686 -166.023L-251.198 -162.248L-174.368 -111.178C-173.476 -112.374 -172.56 -113.593 -171.551 -114.742L-248.686 -166.023ZM-300.203 1.79451V6.31995H-245.727C-245.657 4.81927 -245.61 3.31863 -245.586 1.79451H-300.203ZM217.177 218.079L220.37 214.867L132.81 127.429C131.471 128.226 130.133 129 128.865 129.868L217.177 218.079ZM172.54 -248.725L168.759 -251.233L150.961 -224.55C151.97 -223.377 153.05 -222.252 154.177 -221.197L172.54 -248.725ZM301.333 60.6257L302.178 56.194L275.292 51.0823C275.128 52.583 274.963 54.0836 274.705 55.5843L301.333 60.6257ZM181.533 -68.0807L285.013 -110.053L283.299 -114.226L181.204 -72.8406C181.274 -71.2462 181.368 -69.6752 181.533 -68.0807ZM-105.499 257.284L-115.83 281.717L-111.674 283.476L-100.685 257.519H-103.151C-103.972 257.519 -104.747 257.425 -105.499 257.284ZM-51.1637 -133.759C-51.1637 -133.759 -51.0932 -133.806 -51.0463 -133.829L-109.796 -278.339L-113.999 -276.628L-55.4137 -132.516C-53.9814 -132.915 -52.5725 -133.29 -51.1637 -133.759ZM-125.716 89.2792L-248.239 172.543L-245.68 176.295L-122.522 92.5854C-123.555 91.4599 -124.612 90.3343 -125.716 89.2792ZM47.4799 228.49L61.8972 300.359L66.3351 299.468L52.0821 228.443C50.5324 228.49 49.0062 228.514 47.4799 228.49ZM4.46274 -300.193H-0.0691201V-239.908C1.45714 -239.744 2.95996 -239.65 4.46274 -239.533V-300.193Z" fill="#948A79" fill-opacity="0.04"/>
</g>
</svg>
